<?xml version="1.0" standalone="no"?>
<!DOCTYPE svg PUBLIC "-//W3C//DTD SVG 20010904//EN"
 "http://www.w3.org/TR/2001/REC-SVG-20010904/DTD/svg10.dtd">
<svg version="1.0" xmlns="http://www.w3.org/2000/svg"
 width="260.000000pt" height="260.000000pt" viewBox="0 0 260.000000 260.000000"
 preserveAspectRatio="xMidYMid meet">
<metadata>
Created by potrace 1.11, written by Peter Selinger 2001-2013
</metadata>
<g transform="translate(0.000000,260.000000) scale(0.100000,-0.100000)"
fill="#000000" stroke="none">
<path d="M703 2339 c-126 -27 -183 -72 -216 -169 -23 -67 -28 -135 -32 -366
-3 -223 -4 -234 -31 -289 -33 -71 -103 -103 -235 -108 l-74 -3 -3 -107 -3
-107 74 0 c141 0 228 -47 256 -141 10 -30 15 -114 17 -265 4 -289 18 -370 80
-443 62 -74 169 -100 432 -105 51 0 100 2 110 5 14 5 17 21 17 107 l1 102 -56
0 c-177 1 -215 13 -255 81 -17 29 -19 55 -22 234 -3 244 -8 317 -28 375 -26
74 -75 118 -159 142 -51 15 -52 20 -1 32 83 20 156 94 169 174 4 17 8 44 11
60 2 15 5 122 7 237 3 329 17 354 203 360 50 2 99 4 110 4 19 1 20 7 20 107
l0 105 -156 -2 c-101 -2 -184 -9 -236 -20z"/>
<path d="M1502 2255 l3 -108 105 -2 c110 -2 141 -10 176 -43 34 -32 44 -101
48 -342 5 -321 22 -371 144 -430 23 -11 53 -21 66 -22 27 -2 25 -18 -2 -18
-32 0 -118 -47 -145 -79 -49 -59 -59 -114 -64 -375 -5 -281 -14 -327 -73 -358
-42 -21 -78 -26 -182 -27 l-78 -1 0 -105 c0 -93 2 -105 18 -106 44 -3 289 2
302 6 8 2 35 7 60 10 60 8 141 46 174 81 30 33 63 113 71 176 3 24 8 145 9
268 3 195 6 232 23 276 37 95 86 124 228 132 50 3 92 8 95 13 3 4 5 52 5 106
l0 98 -60 2 c-180 6 -241 40 -274 153 -10 31 -15 119 -17 274 -3 233 -11 297
-46 371 -26 56 -38 70 -80 94 -70 38 -146 52 -331 58 l-178 6 3 -108z"/>
</g>
</svg>
